# Blender 4.5.3 LTS
# www.blender.org
mtllib nave.mtl
o Cube
v 1.000000 0.707078 -0.127040
v 1.000000 -0.003155 -0.127040
v -1.000000 0.707078 -0.616543
v -1.000000 -0.003155 -0.616543
v -1.000000 -0.003155 0.000000
v 1.000000 0.707078 0.000000
v -1.000000 0.707078 0.000000
v 1.000000 -0.003155 0.000000
v -2.124626 0.584041 -0.175307
v -2.130722 0.109850 -0.180054
v -2.197363 0.707078 0.000000
v -2.197363 -0.003155 0.000000
v -1.000000 1.113268 0.000000
v -1.000000 1.113268 -0.072869
v -0.206189 1.113268 -0.127040
v -0.206189 1.113268 0.000000
v -1.987100 1.029842 0.000000
v -1.987100 1.029842 -0.088437
v -2.519874 0.499369 -1.650588
v -2.495099 0.134294 -1.666075
v -1.867685 0.508849 -0.737877
v -1.929385 0.135758 -0.632705
v -2.581182 0.635440 -1.776084
v -2.581182 -0.003155 -1.776084
v -1.876272 0.547096 -0.530172
v -1.913833 0.110142 -0.420806
v -2.512091 0.498388 -1.655453
v -2.487316 0.133314 -1.670940
v -1.859902 0.507868 -0.742742
v -1.921602 0.134778 -0.637570
v -2.493520 0.496049 -1.667062
v -2.468745 0.130975 -1.682549
v -1.841331 0.505529 -0.754351
v -1.903031 0.132438 -0.649179
v -2.197363 0.707078 -0.088437
v -2.197363 -0.003155 -0.088437
v -1.791594 0.648773 -0.644352
v -1.856601 -0.003155 -0.488279
v -2.093850 0.585318 -0.151347
v -2.099946 0.111127 -0.156093
v -1.845496 0.548373 -0.506212
v -1.883057 0.111419 -0.396846
v 1.000000 0.707078 0.127040
v 1.000000 -0.003155 0.127040
v -1.000000 0.707078 0.616543
v -1.000000 -0.003155 0.616543
v -2.124626 0.584041 0.175307
v -2.130722 0.109850 0.180054
v -1.000000 1.113268 0.072869
v -0.206189 1.113268 0.127040
v -1.987100 1.029842 0.088437
v -2.519874 0.499369 1.650588
v -2.495099 0.134294 1.666075
v -1.867685 0.508849 0.737877
v -1.929385 0.135758 0.632705
v -2.581182 0.635440 1.776084
v -2.581182 -0.003155 1.776084
v -1.876272 0.547096 0.530172
v -1.913833 0.110142 0.420806
v -2.512091 0.498388 1.655453
v -2.487316 0.133314 1.670940
v -1.859902 0.507868 0.742742
v -1.921602 0.134778 0.637570
v -2.493520 0.496049 1.667062
v -2.468745 0.130975 1.682549
v -1.841331 0.505529 0.754351
v -1.903031 0.132438 0.649179
v -2.197363 0.707078 0.088437
v -2.197363 -0.003155 0.088437
v -1.791594 0.648773 0.644352
v -1.856601 -0.003155 0.488279
v -2.093850 0.585318 0.151347
v -2.099946 0.111127 0.156093
v -1.845496 0.548373 0.506212
v -1.883057 0.111419 0.396846
vn -0.0000 -0.0000 1.0000
vn 0.2377 -0.0000 -0.9713
vn 1.0000 -0.0000 -0.0000
vn -0.0000 -1.0000 -0.0000
vn -0.0582 0.7998 -0.5975
vn -1.0000 -0.0000 -0.0000
vn -0.0673 0.9860 -0.1525
vn -0.0842 0.9964 -0.0000
vn -0.0000 1.0000 -0.0000
vn 0.1942 0.5767 -0.7935
vn -0.8379 0.5458 -0.0000
vn 0.3191 0.9477 -0.0000
vn -0.0821 -0.9942 0.0690
vn 0.6143 -0.0000 -0.7891
vn 0.5914 -0.0000 -0.8064
vn -0.7875 -0.0000 0.6163
vn -0.8996 0.2498 0.3582
vn -0.8111 0.1548 0.5641
vn -0.8703 0.0531 0.4897
vn 0.5300 -0.0000 0.8480
vn 0.0927 0.9943 -0.0521
vn -0.5375 -0.1453 -0.8306
vn -0.8107 -0.0796 0.5801
vn 0.5301 -0.0000 0.8480
vn -0.7667 -0.0000 -0.6420
vn -0.8175 -0.0727 -0.5713
vn -0.8072 0.0095 -0.5902
vn -0.7588 -0.0768 -0.6467
vn -0.7429 0.0162 -0.6692
vn -0.0249 0.9995 -0.0212
vn -0.6023 0.2422 0.7607
vn -0.0255 -0.9960 0.0858
vn 0.2377 -0.0000 0.9713
vn -0.3903 0.2543 0.8849
vn -0.0673 0.9860 0.1525
vn 0.1942 0.5767 0.7935
vn -0.0821 -0.9942 -0.0690
vn 0.6143 -0.0000 0.7891
vn 0.5914 -0.0000 0.8064
vn -0.9267 -0.0785 -0.3676
vn -0.8996 0.2498 -0.3582
vn -0.8127 0.0542 -0.5802
vn -0.8655 0.1630 -0.4736
vn 0.5300 -0.0000 -0.8480
vn 0.0927 0.9943 0.0521
vn -0.5375 -0.1453 0.8306
vn -0.8107 -0.0796 -0.5801
vn 0.5301 -0.0000 -0.8480
vn -0.5376 -0.1453 0.8306
vn -0.8180 0.0163 0.5750
vn -0.8175 -0.0727 0.5713
vn -0.8204 -0.0859 0.5652
vn -0.7428 0.0233 0.6691
vn -0.7429 0.0162 0.6692
vn -0.0249 0.9995 0.0212
vn -0.6023 0.2422 -0.7607
vn -0.0255 -0.9960 -0.0858
vn -0.3903 0.2543 -0.8849
vn -0.0748 0.9964 0.0405
vn -0.0408 0.8004 -0.5980
vn -0.9267 -0.0785 0.3676
vn -0.7694 0.2203 0.5996
vn -0.8127 0.0542 0.5802
vn -0.8655 0.1630 0.4736
vn -0.8448 0.2700 0.4621
vn 0.5301 -0.0000 0.8479
vn -0.8180 0.0163 -0.5750
vn -0.7674 -0.0759 -0.6367
vn -0.8204 -0.0859 -0.5652
vn -0.7428 0.0233 -0.6691
vn -0.8207 -0.0714 -0.5669
vn -0.0582 0.7998 0.5975
vn -0.0748 0.9964 -0.0405
vn -0.0408 0.8004 0.5980
vn -0.7875 -0.0000 -0.6163
vn -0.7694 0.2203 -0.5996
vn -0.8111 0.1548 -0.5641
vn -0.8703 0.0531 -0.4897
vn -0.8448 0.2700 -0.4621
vn -0.7667 -0.0000 0.6420
vn -0.7674 -0.0759 0.6367
vn -0.8072 0.0095 0.5902
vn -0.7588 -0.0768 0.6467
vn -0.8207 -0.0714 0.5669
vt 0.000000 0.000000
vt 0.625000 0.250000
vt 0.375000 0.500000
vt 0.375000 0.250000
vt 0.625000 0.500000
vt 0.375000 0.625000
vt 0.125000 0.625000
vt 0.125000 0.500000
vt 0.625000 0.125000
vt 0.375000 0.125000
vt 0.875000 0.500000
vt 0.875000 0.625000
vt 0.625000 0.625000
vt 0.572336 0.250000
vt 0.570652 0.250000
vt 0.584338 0.250000
vt 0.415722 0.250000
vt 0.429352 0.250000
vt 0.427701 0.250000
vt 0.583000 0.250000
vt 0.417182 0.250000
s 0
usemtl Material
f 7/1/1 17/1/1 11/1/1
f 3/2/2 2/3/2 4/4/2
f 1/5/3 8/6/3 2/3/3
f 2/3/4 5/7/4 4/8/4
f 3/2/5 18/2/5 14/2/5
f 11/9/6 36/4/6 12/10/6
f 7/1/1 12/1/1 5/1/1
f 5/7/4 36/8/4 4/8/4
f 3/2/7 37/2/7 35/2/7
f 14/11/8 17/12/8 13/12/8
f 14/11/9 16/13/9 15/5/9
f 3/2/10 15/5/10 1/5/10
f 11/9/11 18/2/11 35/2/11
f 7/1/1 16/1/1 13/1/1
f 1/5/12 16/13/12 6/13/12
f 21/14/13 27/15/13 29/14/13
f 9/16/14 40/17/14 10/17/14
f 4/8/4 38/8/4 24/8/4
f 4/4/15 23/2/15 3/2/15
f 20/18/16 23/2/16 24/4/16
f 22/19/17 37/2/17 21/14/17
f 19/15/18 37/2/18 23/2/18
f 22/19/19 24/4/19 38/4/19
f 29/14/13 31/15/13 33/14/13
f 20/18/20 27/15/20 19/15/20
f 20/18/21 30/19/21 28/18/21
f 21/14/22 30/19/22 22/19/22
f 32/18/23 33/14/23 31/15/23
f 28/18/24 31/15/24 27/15/24
f 28/18/21 34/19/21 32/18/21
f 29/14/22 34/19/22 30/19/22
f 9/16/25 36/4/25 35/2/25
f 25/20/26 38/4/26 26/21/26
f 25/20/27 35/2/27 37/2/27
f 10/17/28 38/4/28 36/4/28
f 39/16/29 42/21/29 40/17/29
f 26/21/30 40/17/30 42/21/30
f 26/21/31 41/20/31 25/20/31
f 9/16/32 41/20/32 39/16/32
f 44/3/33 45/2/33 46/4/33
f 8/6/3 43/5/3 44/3/3
f 5/7/4 44/3/4 46/8/4
f 45/2/34 51/2/34 68/2/34
f 69/4/6 11/9/6 12/10/6
f 69/8/4 5/7/4 46/8/4
f 70/2/35 45/2/35 68/2/35
f 17/12/8 49/11/8 13/12/8
f 16/13/9 49/11/9 50/5/9
f 50/5/36 45/2/36 43/5/36
f 51/2/11 11/9/11 68/2/11
f 16/13/12 43/5/12 6/13/12
f 54/14/37 60/15/37 52/15/37
f 73/17/38 47/16/38 48/17/38
f 46/8/4 71/8/4 69/8/4
f 56/2/39 46/4/39 45/2/39
f 53/18/40 56/2/40 52/15/40
f 70/2/41 55/19/41 54/14/41
f 52/15/42 70/2/42 54/14/42
f 55/19/43 57/4/43 53/18/43
f 62/14/37 64/15/37 60/15/37
f 60/15/44 53/18/44 52/15/44
f 53/18/45 63/19/45 55/19/45
f 63/19/46 54/14/46 55/19/46
f 66/14/47 65/18/47 64/15/47
f 64/15/48 61/18/48 60/15/48
f 61/18/45 67/19/45 63/19/45
f 67/19/49 62/14/49 63/19/49
f 47/16/50 69/4/50 48/17/50
f 71/4/51 58/20/51 59/21/51
f 58/20/52 68/2/52 47/16/52
f 48/17/53 71/4/53 59/21/53
f 75/21/54 72/16/54 73/17/54
f 59/21/55 73/17/55 48/17/55
f 74/20/56 59/21/56 58/20/56
f 47/16/57 74/20/57 58/20/57
f 7/1/1 13/1/1 17/1/1
f 3/2/2 1/5/2 2/3/2
f 1/5/3 6/13/3 8/6/3
f 2/3/4 8/6/4 5/7/4
f 3/2/58 35/2/58 18/2/58
f 11/9/6 35/2/6 36/4/6
f 7/1/1 11/1/1 12/1/1
f 5/7/4 12/7/4 36/8/4
f 3/2/59 23/2/59 37/2/59
f 14/11/8 18/11/8 17/12/8
f 14/11/9 13/12/9 16/13/9
f 3/2/60 14/2/60 15/5/60
f 11/9/11 17/9/11 18/2/11
f 7/1/1 6/1/1 16/1/1
f 1/5/12 15/5/12 16/13/12
f 21/14/13 19/15/13 27/15/13
f 9/16/14 39/16/14 40/17/14
f 4/8/4 36/8/4 38/8/4
f 4/4/15 24/4/15 23/2/15
f 20/18/61 19/15/61 23/2/61
f 22/19/62 38/4/62 37/2/62
f 19/15/63 21/14/63 37/2/63
f 22/19/64 20/18/64 24/4/64
f 29/14/13 27/15/13 31/15/13
f 20/18/24 28/18/24 27/15/24
f 20/18/21 22/19/21 30/19/21
f 21/14/22 29/14/22 30/19/22
f 32/18/65 34/19/65 33/14/65
f 28/18/66 32/18/66 31/15/66
f 28/18/21 30/19/21 34/19/21
f 29/14/22 33/14/22 34/19/22
f 9/16/67 10/17/67 36/4/67
f 25/20/68 37/2/68 38/4/68
f 25/20/69 9/16/69 35/2/69
f 10/17/70 26/21/70 38/4/70
f 39/16/71 41/20/71 42/21/71
f 26/21/30 10/17/30 40/17/30
f 26/21/31 42/21/31 41/20/31
f 9/16/32 25/20/32 41/20/32
f 44/3/33 43/5/33 45/2/33
f 8/6/3 6/13/3 43/5/3
f 5/7/4 8/6/4 44/3/4
f 45/2/72 49/2/72 51/2/72
f 69/4/6 68/2/6 11/9/6
f 69/8/4 12/7/4 5/7/4
f 70/2/73 56/2/73 45/2/73
f 17/12/8 51/11/8 49/11/8
f 16/13/9 13/12/9 49/11/9
f 50/5/74 49/2/74 45/2/74
f 51/2/11 17/9/11 11/9/11
f 16/13/12 50/5/12 43/5/12
f 54/14/37 62/14/37 60/15/37
f 73/17/38 72/16/38 47/16/38
f 46/8/4 57/8/4 71/8/4
f 56/2/39 57/4/39 46/4/39
f 53/18/75 57/4/75 56/2/75
f 70/2/76 71/4/76 55/19/76
f 52/15/77 56/2/77 70/2/77
f 55/19/78 71/4/78 57/4/78
f 62/14/37 66/14/37 64/15/37
f 60/15/48 61/18/48 53/18/48
f 53/18/45 61/18/45 63/19/45
f 63/19/46 62/14/46 54/14/46
f 66/14/79 67/19/79 65/18/79
f 64/15/48 65/18/48 61/18/48
f 61/18/45 65/18/45 67/19/45
f 67/19/46 66/14/46 62/14/46
f 47/16/80 68/2/80 69/4/80
f 71/4/81 70/2/81 58/20/81
f 58/20/82 70/2/82 68/2/82
f 48/17/83 69/4/83 71/4/83
f 75/21/84 74/20/84 72/16/84
f 59/21/55 75/21/55 73/17/55
f 74/20/56 75/21/56 59/21/56
f 47/16/57 72/16/57 74/20/57
